<svg width="1024" height="1024" viewBox="0 0 1024 1024" fill="none" xmlns="http://www.w3.org/2000/svg">
<path d="M511.5 65C758.095 65 958 264.905 958 511.5C958 758.095 758.095 958 511.5 958C264.905 958 65 758.095 65 511.5C65 264.905 264.905 65 511.5 65ZM512 259C484.386 259 462 281.386 462 309V462H309C281.386 462 259 484.386 259 512C259 539.614 281.386 562 309 562H462V714L462.004 714.646C462.35 741.963 484.602 764 512 764C539.398 764 561.65 741.963 561.996 714.646L562 714V562H714L714.646 561.996C741.963 561.65 764 539.398 764 512C764 484.602 741.963 462.35 714.646 462.004L714 462H562V309C562 281.386 539.614 259 512 259Z" fill="white"/>
</svg>
