<svg width="1024" height="1024" viewBox="0 0 1024 1024" fill="none" xmlns="http://www.w3.org/2000/svg">
<path d="M511.5 65C758.095 65 958 264.905 958 511.5C958 758.095 758.095 958 511.5 958C264.905 958 65 758.095 65 511.5C65 264.905 264.905 65 511.5 65ZM752.355 350.645C732.829 331.119 701.171 331.118 681.645 350.645L465 567.289L342.355 444.645C322.829 425.119 291.171 425.118 271.645 444.645C252.118 464.171 252.119 495.829 271.645 515.355L429.645 673.355L430.101 673.806C430.313 674.013 430.529 674.218 430.744 674.421C430.993 674.655 431.243 674.887 431.495 675.115C431.81 675.4 432.129 675.68 432.449 675.956C434.279 677.528 436.196 678.946 438.182 680.211C438.357 680.323 438.534 680.433 438.711 680.543C438.906 680.664 439.102 680.783 439.298 680.9C439.895 681.259 440.498 681.605 441.106 681.937C441.562 682.184 442.021 682.423 442.482 682.655C442.648 682.739 442.813 682.821 442.979 682.902C443.183 683.002 443.387 683.1 443.592 683.197C443.752 683.273 443.912 683.348 444.073 683.422C444.27 683.512 444.467 683.602 444.664 683.689C444.847 683.771 445.03 683.851 445.213 683.93C445.4 684.01 445.588 684.09 445.776 684.168C445.952 684.241 446.129 684.314 446.306 684.385C446.498 684.462 446.691 684.538 446.885 684.613C447.085 684.691 447.286 684.768 447.487 684.843C447.651 684.904 447.815 684.964 447.979 685.023C448.187 685.099 448.396 685.173 448.605 685.245C448.79 685.309 448.976 685.371 449.161 685.433C449.345 685.494 449.53 685.555 449.715 685.614C449.906 685.675 450.097 685.735 450.289 685.794C450.492 685.856 450.694 685.917 450.897 685.977C451.076 686.029 451.255 686.081 451.435 686.131C451.631 686.186 451.828 686.24 452.024 686.293C452.219 686.345 452.414 686.396 452.609 686.445C452.804 686.495 452.999 686.544 453.194 686.591C453.388 686.638 453.582 686.683 453.776 686.728C453.959 686.769 454.141 686.811 454.324 686.851C454.545 686.899 454.767 686.945 454.988 686.99C455.149 687.023 455.31 687.055 455.472 687.086C455.694 687.129 455.917 687.171 456.141 687.211C456.322 687.243 456.504 687.274 456.686 687.305C456.887 687.338 457.088 687.371 457.289 687.402C457.49 687.434 457.692 687.463 457.894 687.492C458.075 687.518 458.256 687.543 458.438 687.567C458.661 687.597 458.885 687.625 459.109 687.651C459.277 687.671 459.444 687.69 459.611 687.708C459.826 687.731 460.04 687.753 460.255 687.773C460.447 687.792 460.64 687.808 460.833 687.824C461.04 687.841 461.248 687.857 461.455 687.872C461.638 687.885 461.82 687.896 462.003 687.907C462.215 687.92 462.427 687.931 462.64 687.941C462.82 687.95 463 687.957 463.181 687.964C463.4 687.972 463.619 687.978 463.838 687.983C464.025 687.988 464.213 687.991 464.4 687.993C464.6 687.996 464.8 687.997 465 687.997C465.193 687.997 465.386 687.995 465.579 687.993C465.794 687.991 466.008 687.987 466.223 687.981C466.401 687.977 466.579 687.972 466.757 687.966C466.965 687.959 467.173 687.95 467.381 687.94C467.586 687.931 467.791 687.919 467.996 687.907C468.178 687.896 468.36 687.885 468.542 687.872C468.745 687.858 468.948 687.842 469.151 687.825C469.368 687.807 469.584 687.788 469.8 687.768C469.969 687.751 470.137 687.734 470.306 687.716C470.528 687.692 470.75 687.667 470.973 687.641C471.143 687.62 471.314 687.599 471.484 687.577C471.72 687.547 471.955 687.514 472.189 687.48C472.341 687.459 472.493 687.435 472.645 687.412C472.877 687.376 473.11 687.339 473.342 687.3C473.51 687.271 473.679 687.243 473.848 687.213C474.074 687.172 474.3 687.13 474.525 687.086C474.691 687.054 474.857 687.021 475.022 686.987C475.236 686.944 475.449 686.899 475.662 686.853C475.849 686.812 476.036 686.77 476.223 686.728C476.421 686.682 476.62 686.635 476.818 686.587C477.004 686.542 477.19 686.496 477.375 686.449C477.584 686.396 477.792 686.342 478 686.286C478.17 686.241 478.339 686.194 478.509 686.146C478.725 686.086 478.941 686.024 479.156 685.961C479.335 685.908 479.513 685.854 479.691 685.8C479.889 685.739 480.087 685.677 480.284 685.614C480.469 685.555 480.654 685.494 480.838 685.433C481.027 685.37 481.216 685.306 481.404 685.241C481.593 685.176 481.781 685.11 481.969 685.042C482.18 684.966 482.391 684.889 482.602 684.81C482.752 684.753 482.901 684.696 483.051 684.638C483.277 684.55 483.503 684.461 483.729 684.37C483.877 684.31 484.025 684.25 484.173 684.188C484.394 684.097 484.615 684.003 484.835 683.908C484.996 683.839 485.157 683.769 485.317 683.697C485.521 683.607 485.723 683.515 485.926 683.422C486.082 683.35 486.238 683.277 486.394 683.203C486.62 683.096 486.845 682.988 487.07 682.877C487.202 682.812 487.334 682.746 487.466 682.68C491.931 680.434 496.132 677.479 499.896 673.81L500.355 673.355L752.355 421.355C771.882 401.829 771.882 370.171 752.355 350.645Z" fill="white"/>
</svg>
