<svg width="512" height="512" viewBox="0 0 512 512" fill="none" xmlns="http://www.w3.org/2000/svg">
<path d="M199.537 43.9648C181.015 43.9648 165.123 56.637 148.334 62.2333C136.367 66.2223 125.94 75.6657 115.337 82.1453C103.429 89.4225 92.2768 102.365 83.478 113.12C78.5655 119.124 72.7406 124.348 68.6862 131.009C65.1029 136.896 62.8467 143.58 59.3307 149.53C55.7521 155.586 53.9348 162.326 50.4809 168.494C47.2002 174.352 43.6697 181.267 42.5161 187.9C36.2537 223.909 30 259.393 30 296.057C30 328.136 31.1009 363.783 50.2281 391.003C58.4025 402.636 67.4655 415.339 78.9267 424.253C89.6973 432.63 101.115 439.503 112.998 446.188C126.487 453.775 141.429 458.813 156.236 463.255C171.574 467.856 185.199 473.109 201.307 474.949C226.896 477.874 252.042 475.772 277.415 472.421C286.644 471.202 295.696 469.757 304.849 468.122C315.299 466.256 325.081 461.16 335.318 458.388C350.17 454.365 365.935 447.929 379.946 441.32C397.575 433.005 414.727 424.997 428.746 410.978C451.73 387.994 468.223 359.3 472.869 326.779C475.4 309.06 482.856 292.543 482.856 274.439C482.856 264.767 482.856 255.095 482.856 245.424C482.856 233.267 479.375 221.429 478.305 209.393C476.678 191.091 473.107 169.287 464.145 152.944C455.267 136.753 443.71 121.902 431.464 108.126C424.281 100.045 414.323 94.7609 406.622 87.2023C399.768 80.4755 393.633 75.0821 385.003 70.767C370.539 63.535 356.351 58.3799 340.88 54.2053C327.231 50.5221 313.192 50.6597 299.413 48.2633C288.974 46.4479 278.509 43.6064 268.312 41.7524C255.123 39.3543 241.423 36 227.982 36C213.314 36 198.823 39.7701 185.883 46.2405" stroke="#FF5656" stroke-width="30" stroke-linecap="round"/>
<path d="M221.921 152.385C221.816 151.548 221.012 150.892 220.382 150.352C218.109 148.403 217.138 142.977 216.097 140.244C214.4 135.789 214.467 130.505 212.527 126.236C209.167 118.845 214.208 111.643 216.976 105.415C219.025 100.807 227.396 95.1891 232.303 94.0986C238.873 92.6387 245.718 93.0549 252.574 93.0549C268.329 93.0549 273.561 109.214 280.262 120.522C283.716 126.352 282.239 134.923 282.239 141.508C282.239 148.515 278.395 151.219 273.56 155.571C271.545 157.385 270.269 156.289 272.846 154.857C276.313 152.931 278.444 150.345 282.239 148.869C289.885 145.896 298.239 143.339 305.532 140.024C312.874 136.687 323.148 137.552 331.132 137.552C336.411 137.552 343.026 138.358 345.525 143.98C351.311 156.999 352.447 169.964 352.447 184.577C352.447 200.679 329.24 206.771 316.904 206.771C314.065 206.771 308.389 206.771 308.389 206.771C308.389 206.771 314.342 206.931 317.068 207.979C324.944 211.008 328.332 219.652 331.681 226.548C334.703 232.768 335.609 248.246 332.67 254.674C326.971 267.141 317.497 273.758 303.994 276.758C298.268 278.031 291.185 276.978 285.316 276.978C279.382 276.978 275.862 272.638 271.307 269.507C267.163 266.658 263.062 259.795 260.98 255.169C258.254 249.112 254.28 241.136 253.618 234.513C253.145 229.778 254.01 226.453 252.025 232.975C250.287 238.686 247.475 243.66 245.598 249.291C243.763 254.795 237.558 260.775 232.798 263.684C229.886 265.463 227.429 267.872 224.393 269.507C221.87 270.865 218.704 270.663 216.042 271.594C206.617 274.893 186.676 274.616 179.62 266.101C170.539 255.14 165.557 246.112 165.557 231.492C165.557 220.387 176.456 215.673 185.334 211.935C188.522 210.592 177.375 214.954 175.445 215.451C172.139 216.301 166.424 216.272 163.14 215.451C137.841 209.126 127.031 168.554 152.702 155.351C164.551 149.258 175.297 149.418 188.52 149.418C195.668 149.418 201.929 152.084 208.846 152.385C213.323 152.58 217.588 155.351 221.921 155.351" stroke="#7BAB65" stroke-width="30" stroke-linecap="round"/>
<path d="M321.793 204.793C318.991 204.793 316.189 204.793 313.388 204.793C313.117 204.793 306.339 204.801 306.631 205.287C307.963 207.508 312.771 208.687 314.871 209.737" stroke="#7BAB65" stroke-width="30" stroke-linecap="round"/>
</svg>
