<svg width="512" height="512" viewBox="0 0 512 512" fill="none" xmlns="http://www.w3.org/2000/svg">
<path d="M199.537 43.9648C181.015 43.9648 165.123 56.637 148.334 62.2333C136.367 66.2223 125.94 75.6657 115.337 82.1453C103.429 89.4225 92.2768 102.365 83.478 113.12C78.5655 119.124 72.7406 124.348 68.6862 131.009C65.1029 136.896 62.8467 143.58 59.3307 149.53C55.7521 155.586 53.9348 162.326 50.4809 168.494C47.2002 174.352 43.6697 181.267 42.5161 187.9C36.2537 223.909 30 259.393 30 296.057C30 328.136 31.1009 363.783 50.2281 391.003C58.4025 402.636 67.4655 415.339 78.9267 424.253C89.6973 432.63 101.115 439.503 112.998 446.188C126.487 453.775 141.429 458.813 156.236 463.255C171.574 467.856 185.199 473.109 201.307 474.949C226.896 477.874 252.042 475.772 277.415 472.421C286.644 471.202 295.696 469.757 304.849 468.122C315.299 466.256 325.081 461.16 335.318 458.388C350.17 454.365 365.935 447.929 379.946 441.32C397.575 433.005 414.727 424.997 428.746 410.978C451.73 387.994 468.223 359.3 472.869 326.779C475.4 309.06 482.856 292.543 482.856 274.439C482.856 264.767 482.856 255.095 482.856 245.424C482.856 233.267 479.375 221.429 478.305 209.393C476.678 191.091 473.107 169.287 464.145 152.944C455.267 136.753 443.71 121.902 431.464 108.126C424.281 100.045 414.323 94.7609 406.622 87.2023C399.768 80.4755 393.633 75.0821 385.003 70.767C370.539 63.535 356.351 58.3799 340.88 54.2053C327.231 50.5221 313.192 50.6597 299.413 48.2633C288.974 46.4479 278.509 43.6064 268.312 41.7524C255.123 39.3543 241.423 36 227.982 36C213.314 36 198.823 39.7701 185.883 46.2405" stroke="#FF5656" stroke-width="30" stroke-linecap="round"/>
<path d="M210.2 148.87C204.087 156.959 182.082 200.464 209.718 195.101C223.068 192.511 244.05 160.135 231.896 147.692C215.938 131.354 195.801 168.402 192.951 179.62C190.702 188.47 189.749 201.536 199.058 206.833C209.058 212.525 220.333 204.102 227.021 197.084C238.375 185.168 250.321 148.983 224.289 145.87C206.157 143.702 187.453 158.943 175.862 171.102C164.44 183.082 153.455 201.667 158.451 218.833C161.657 229.846 170.92 235.544 182.022 235.976C195.504 236.499 206.171 227.455 211.7 215.726C223.943 189.753 221.85 136.754 182.772 137.192C140.059 137.67 119.131 191.511 119.131 227.565C119.131 238.457 121.073 258.249 136.166 257.243C151.02 256.253 162.081 239.858 168.04 227.94C181.408 201.204 189.498 154.344 155.773 138.156C119.647 120.816 97.357 162.332 93.4168 192.262C91.3508 207.957 91.6027 226.73 98.506 241.333C101.934 248.584 110.229 255.392 118.113 250.011C130.828 241.333 132.795 219.886 133.702 206.137C134.661 191.584 134.266 175.389 127.755 161.995C119.464 144.939 102.143 150.737 94.5418 165.209C86.6143 180.302 83.3222 198.443 82.2206 215.297C81.5492 225.57 80.514 238.491 84.4706 248.297C92.8441 269.049 104.941 229.263 105.952 224.404C107.432 217.297 113.343 175.209 93.9525 181.977C85.9859 184.758 81.7811 196.991 79.2207 203.833C73.0882 220.222 71.453 237.345 71.453 254.725C71.453 268.983 73.3118 282.061 79.5421 295.01C81.4878 299.054 86.6544 311.357 92.9883 305.51C98.598 300.332 99.7788 289.728 100.81 282.689C102.733 269.557 102.958 255.405 101.774 242.19C101.444 238.506 100.034 225.255 93.6311 226.119C83.4563 227.491 79.3674 245.298 77.3457 252.904C73.4841 267.433 71.6279 282.582 71.0244 297.582C70.4416 312.07 69.5495 330.361 77.3993 343.331C80.5309 348.504 89.1678 357.188 95.1311 350.991C103.017 342.796 107.161 329.156 108.792 318.153C110.991 303.308 110.382 269.146 89.1312 266.404C79.3258 265.138 75.1805 278.468 73.703 285.689C69.949 304.034 71.4799 324.755 77.3457 342.473C79.4882 348.945 94.245 393.735 107.667 383.455C126.807 368.794 121.475 327.537 108.524 311.188C95.5453 294.806 78.0677 308.979 74.1315 325.01C67.3838 352.491 88.8122 380.535 109.702 396.044C113.969 399.211 120.213 403.807 122.773 396.365C127.41 382.887 121.858 365.785 116.452 353.509C110.099 339.081 89.597 309.611 70.4887 324.795C63.7497 330.15 64.9561 339.828 67.0602 347.134C71.3008 361.858 83.0718 370.835 94.3811 380.187C104.219 388.322 113.997 396.505 126.255 400.704C133.983 403.352 145.346 405.62 150.684 397.437C161.163 381.368 154.135 350.273 133.702 345.473C123.894 343.17 117.747 353.455 115.381 361.437C111.072 375.972 112.861 392.442 122.131 404.722C128.889 413.677 140.125 420.663 150.684 424.222C156.568 426.206 170.346 429.151 175.701 424.543C182.919 418.332 179.368 404.582 176.022 397.49C171.021 386.888 162.738 374.461 152.184 368.669C146.213 365.393 136.279 363.604 130.595 368.616C121.647 376.506 123.565 394.794 128.345 404.187C138.436 424.019 171.661 436.733 192.843 428.829C212.172 421.617 213.459 397.929 203.45 383.133C199.321 377.029 188.996 363.618 179.987 365.294C170.277 367.101 175.813 391.302 177.254 396.794C182.622 417.248 197.814 438.269 218.986 444.043C227.738 446.43 238.045 446.743 245.342 440.4C252.825 433.896 253.206 421.425 251.771 412.436C249.821 400.225 243.839 389.281 234.789 380.883C228.645 375.183 218.418 369.041 210.682 375.794C188.227 395.398 206.885 431.686 230.236 440.025C253.348 448.279 273.606 422.193 281.877 403.919C286.341 394.057 289.205 381.659 283.217 371.723C279.095 364.885 270.921 362.318 263.878 366.312C255.86 370.86 254.814 381.411 254.985 389.723C255.237 401.994 260.168 416.789 269.985 424.758C285.179 437.091 305.663 440.83 317.019 421.865C325.031 408.485 334.968 370.095 314.984 361.92C305.663 358.107 294.775 363.236 289.484 371.08C281.965 382.229 279.724 398.621 280.967 411.794C281.753 420.125 285.657 431.298 292.806 436.329C302.841 443.391 314.711 435.94 322.912 429.686C335.293 420.245 343.942 406.993 349.59 392.615C354.263 380.721 359.841 365.047 358.269 352.009C357.324 344.178 350.337 341.76 343.483 344.723C332.034 349.674 327.533 363.681 326.555 375.044C325.48 387.535 326.8 402.813 337.162 411.472C345.073 418.083 359.643 420.361 369.304 416.829C394.056 407.78 396.803 374.831 392.179 353.134C390.404 344.807 385.416 335.402 375.679 335.402C366.292 335.402 361.362 346.393 359.501 354.045C355.386 370.961 361.941 403.284 385.375 399.472C411.868 395.163 412.847 360.255 411.089 340.009C410.355 331.556 408.79 320.139 402.411 313.76C396.131 307.48 388.666 312.317 385.482 319.01C377.44 335.919 381.479 369.849 403.482 374.187C426.205 378.668 428.738 340.67 427.374 326.402C426.24 314.53 423.946 298.745 415.91 289.171C411.394 283.789 403.162 282.568 398.875 288.85C392.549 298.117 393.156 312.601 394.054 323.188C394.936 333.603 397.795 345.486 406.589 352.116C428.504 368.636 433.525 328.494 433.267 314.831C432.987 299.999 431.502 284.856 427.107 270.636C425.85 266.569 423.051 253.129 417.41 252.261C409.925 251.109 405.621 263.327 403.75 268.225C399.577 279.146 397.57 292.464 400.107 304.064C403.885 321.336 423.872 330.025 436.481 315.795C445.293 305.852 447.061 288.522 447.945 275.939C448.968 261.393 449.234 245.787 443.767 232.011C441.825 227.118 438.159 220.948 432.356 220.119C422.75 218.746 419.859 231.403 418.642 238.279C416.159 252.312 417.061 267.38 423.41 280.332C425.801 285.208 431.899 295.437 438.624 295.064C445.131 294.702 444.928 279.045 445.267 275.189C446.974 255.757 445.266 236.433 440.874 217.44C438.263 206.149 428.672 173.6 413.339 193.762C402.152 208.472 396.769 244.306 415.267 255.69C422.944 260.413 431.951 262.174 439.535 256.386C451.067 247.585 451.228 231.833 450.945 218.619C450.5 197.798 445.172 166.953 422.232 159.049C416.18 156.964 409.125 153.651 405.946 161.299C400.636 174.074 401.913 189.361 405.196 202.441C407.325 210.919 411.249 222.62 419.66 227.083C427.31 231.142 430.638 221.169 431.553 215.512C434.185 199.238 430.302 181.123 425.232 165.691C421.3 153.725 415.805 139.862 407.125 130.442C395.21 117.511 372.26 109.319 365.929 132.156C362.507 144.501 365.117 158.859 371.554 169.709C376.136 177.433 384.755 187.118 394.911 185.941C418.361 183.222 412.967 143.123 408.303 128.942C401.311 107.681 370.538 96.5889 350.447 105.371C330.164 114.237 330.187 147.459 342.948 162.102C348.502 168.476 358.442 173.989 367.001 170.138C376.532 165.849 375.47 151.029 374.875 142.763C373.258 120.28 359.643 99.601 338.34 91.2286C327.99 87.1603 316.447 85.2029 305.877 89.8357C294.919 94.6382 290.322 111.463 288.734 122.085C286.996 133.721 287.674 145.532 295.056 155.192C302.471 164.896 315.214 170.106 327.359 168.102C357.345 163.153 349.561 128.409 337.698 109.496C324.609 88.63 304.863 82.3986 281.127 83.5144C269.983 84.0383 262.226 87.9571 258.842 99.157C254.945 112.057 253.964 128.097 260.021 140.513C268.852 158.617 291.74 164.791 301.055 144.21C310.31 123.764 305.313 89.8666 284.074 78.211C262.824 66.5497 231.265 75.7568 220.486 97.7641C208.872 121.475 227.243 144.573 252.414 142.817C277.64 141.057 270.046 105.953 262.163 91.7643C256.816 82.1386 249.542 73.3157 238.164 71.4075C226.883 69.5157 214.72 74.2662 204.95 79.4431C195.385 84.512 188.23 92.0768 183.469 101.782C178.848 111.201 174.617 126.372 181.647 135.746C187.108 143.027 197.791 143.279 205.325 139.763C216.696 134.457 220.966 124.577 222.468 112.657C224.499 96.5359 221.923 77.5056 203.129 74.836C179.868 71.532 157.333 84.2728 144.202 103.121C133.221 118.882 132.784 144.098 157.648 142.87C175.792 141.974 192.991 121.437 185.665 103.121C178.108 84.2278 153.227 91.4679 140.88 99.907C128.659 108.26 119.846 121.33 113.988 134.728C109.245 145.574 104.301 159.984 108.845 171.798C117.072 193.188 147.364 194.496 163.969 183.477C174.051 176.786 184.503 165.984 185.879 153.424C186.356 149.076 186.305 140.066 179.29 141.906C167.984 144.872 159.882 158.792 155.451 168.477C144.455 192.514 139.478 221.388 142.702 247.654C145.039 266.699 155.939 292.679 174.415 301.653C186.994 307.763 201.269 309.462 211.914 299.189C224.707 286.842 230.626 269.253 233.021 252.047C234.787 239.361 236.154 219.679 226.271 209.512C197.449 179.86 175.479 264.572 173.451 279.153C171.257 294.93 171.686 310.585 181.915 323.563C191.044 335.147 205.762 336.837 218.986 330.902C236.708 322.948 245.704 302.93 250.217 285.314C255.94 262.975 257.354 237.339 250.753 214.976C248.127 206.081 242.148 191.387 230.771 191.191C213.098 190.886 203.295 214.242 198.415 227.404C188.935 252.97 182.918 281.984 185.986 309.367C187.773 325.312 196.113 336.486 212.986 337.545C226.458 338.39 237.797 329.2 246.896 320.402C268.654 299.365 285.577 274.379 296.823 246.315C304.552 227.031 310.671 203.956 307.109 182.941C304.8 169.318 290.961 172.557 282.734 178.816C258.701 197.102 243.887 225.994 236.503 254.618C230.799 276.731 230.765 299.793 246.146 318.367C254.388 328.32 270.799 334.699 283.645 331.759C299.818 328.059 310.549 312.045 317.716 298.332C327.855 278.929 334.126 257.527 337.698 235.976C339.22 226.791 344.919 198.044 333.412 191.405C321.797 184.704 306.406 213.284 303.198 219.797C290.315 245.957 284.467 276.879 285.949 305.939C286.597 318.659 289.757 334.021 303.948 337.706C321.996 342.391 337.964 322.105 345.519 308.563C359.071 284.273 362.609 253.417 364.161 226.119C364.585 218.666 368.032 199.417 357.197 197.03C347.147 194.816 339.426 212.073 336.305 218.726C330.725 230.622 328.58 243.161 327.251 256.118C326.323 265.174 325.237 275.105 327.626 284.082C330.624 295.343 338.637 307.393 351.947 305.189C364.355 303.134 372.693 282.543 375.625 272.403C381.211 253.091 381.728 231.213 377.768 211.548C376.201 203.765 373.205 196.525 364.483 196.119C357.667 195.802 355.804 198.157 355.804 204.798" stroke="#FF5656" stroke-width="60" stroke-linecap="round"/>
<path d="M211.919 152.603C204.74 152.603 202.45 135.996 202.45 130.333C202.45 125.359 201.889 120.796 204.817 116.48C207.633 112.33 211.325 108.884 214.9 105.433C220.528 99.9989 230.814 95 238.747 95C247.886 95 252.367 98.6269 258.08 105.609C263.654 112.422 263.136 119.915 265.182 128.097C266.063 131.625 265.576 135.602 265.576 139.232C265.576 143.214 262.349 145.37 261.017 148.833C260.46 150.281 255.341 156.183 256.282 153.567C256.904 151.842 262.973 147.133 264.612 146.465C273.809 142.718 282.069 136.422 291.265 132.481C299.565 128.924 306.679 127.352 315.683 127.352C323.908 127.352 330.28 138.059 330.28 145.457C330.28 155.495 326.617 161.79 319.584 168.823C314.666 173.741 306.812 179.047 299.506 179.431C297.653 179.529 295.727 180.751 293.983 181.623C290.756 183.237 291.119 182.588 294.772 182.588C299.506 182.588 306.538 186.368 310.115 189.295C316.37 194.413 320.602 200.585 322.39 208.627C324.057 216.131 326.891 224.28 321.776 230.721C318.689 234.609 311.905 237.385 307.397 239.401C303.482 241.153 298.239 241.769 293.983 241.769C284.027 241.769 279.054 234.853 271.713 229.143C265.546 224.347 263.488 215.37 258.474 209.767C257.227 208.374 256.569 206.641 255.493 205.296C254.234 203.722 254.529 201.135 254.529 205.559C254.529 223.058 240.721 242.332 225.947 251.062C217.54 256.03 208.895 254.804 200.872 250.448C192.163 245.721 187.906 228.705 191.052 219.718C194.05 211.153 198.706 204.572 204.422 197.536C206.212 195.334 209.803 192.362 211.13 190.04C211.474 189.437 213.437 187.959 213.015 188.55C212.096 189.836 210.665 190.943 209.551 192.057C207.435 194.173 204.44 196.263 201.968 197.975C197.909 200.784 192.673 203.652 188.246 205.866C175.391 212.293 160.818 209.949 150.546 200.123C146.458 196.212 140.538 191.396 139.499 185.393C138.435 179.245 139.058 171.836 141.515 166.192C146.099 155.667 155.344 150.021 166.108 147.868C175.616 145.967 185.595 144.998 194.603 149.052C199.389 151.206 204.189 152.869 208.806 155.408C212.441 157.407 214.164 158.915 218.231 158.915" stroke="#7BAB65" stroke-width="30" stroke-linecap="round"/>
<path d="M232.378 159.477C232.378 163.97 233.644 168.108 236.343 171.798C239.605 176.259 239.128 165.947 239.128 164.834C239.128 155.111 231.885 152.608 228.736 162.905C228.396 164.016 226.166 170.538 228.95 170.62C232.729 170.731 234.071 166.245 234.253 163.334C234.414 160.763 235.228 155.263 233.343 153.156C231.556 151.159 230.561 159.484 230.503 160.173C230.264 163.043 232.367 162.302 233.878 160.548C237.759 156.047 240.017 147.984 238.7 142.12C238.054 139.247 232.783 131.534 229.057 134.727C226.82 136.645 225.108 143.1 228.736 144.584C236.038 147.572 247.373 131.803 243.307 125.888C238.383 118.726 221.069 141.884 231.521 139.924C238.396 138.635 248.08 118.48 239.128 118.978C233.741 119.277 230.187 125.58 229.593 130.335C229.317 132.538 229.263 135.479 232.164 133.013C234.398 131.115 236.406 119.411 230.986 120.96C228.829 121.576 233.886 142.076 233.932 142.388C235.023 149.775 236.055 158.971 240.092 165.477C240.971 166.892 244.772 169.885 245.664 166.763C248.923 155.356 228.728 152.535 223.914 161.834C222.747 164.09 220.728 168.93 221.986 171.584C223.164 174.071 224.557 167.196 224.557 166.763C224.557 162.017 220.566 160.048 216.2 160.656C210.359 161.469 207.253 167.729 205.968 172.87C203.437 182.996 214.492 171.418 211.7 164.513C208.447 156.465 189.258 166.143 190.219 172.387C190.729 175.706 206.198 169.257 201.843 160.87C196.855 151.264 179.636 169.223 186.308 173.512C192.167 177.279 199.175 164.38 188.451 161.138C182.19 159.245 176.672 162.779 174.201 168.584C172.274 173.111 172.993 179.363 179.451 176.941C182.937 175.634 188.772 170.878 188.772 166.709C188.772 161.2 181.149 159.931 177.094 161.084C164.703 164.606 168.304 186.56 182.022 175.655C185.006 173.284 188.812 167.144 185.451 163.548C181.119 158.914 172.421 163.254 169.058 166.87C167.498 168.547 161.608 178.403 164.987 180.477C170.026 183.569 177.095 178.546 180.094 174.798C190.05 162.352 169.937 160.144 164.023 171.584C160.172 179.032 162.119 185.135 170.933 185.673C180.582 186.261 190.194 181.593 196.058 173.941C199.203 169.836 201.459 164.539 203.236 159.691C203.681 158.479 203.591 163.673 205.111 164.995C213.007 171.861 242.717 148.335 235.003 155.406C230.46 159.57 218.547 184.205 233.021 180.048C237.639 178.722 243.829 173.768 242.717 168.209C241.42 161.719 232.934 165.383 230.343 168.584C228.58 170.761 225.499 178.011 228.843 180.262C232.837 182.951 239.269 180.358 241.325 176.405C243.407 172.402 237.613 171.215 234.789 171.905C226.926 173.827 222.489 186.027 221.236 193.012C221.08 193.878 219.776 201.975 221.021 202.655C223.423 203.965 224.73 193.579 224.504 192.369C223.111 184.94 214.158 190.596 211.593 193.869C208.055 198.383 202.698 209.185 205.647 215.083C208.052 219.893 214.467 215.524 216.897 213.315C221.141 209.457 224.468 204.254 223.486 198.262C222.251 190.728 214.446 200.839 213.254 203.083C211.313 206.736 205.756 218.578 210.415 222.261C216.767 227.285 229.393 199.298 225.039 193.976C222.721 191.143 215.036 211.266 214.7 213.047C214.303 215.15 211.956 228.583 216.2 228.583C221.596 228.583 225.284 220.743 226.968 216.69C228.624 212.703 234.541 195.585 230.771 191.941C226.262 187.582 215.567 209.014 214.647 211.012C214.182 212.02 206.105 230.164 211.593 228.476C217.395 226.69 220.495 218.803 222.95 214.012C225.562 208.914 228.159 203.814 230.825 198.744C232.564 195.435 234.508 189.489 237.253 186.744C239.1 184.897 234.713 191.312 233.557 193.655C231.157 198.52 228.633 203.707 227.236 208.976C224.671 218.641 236.704 206.142 238.271 204.53C246.888 195.659 253.703 185.481 260.61 175.28C261.65 173.744 272.266 160.128 265.699 169.013C261.364 174.878 255.064 184.761 255.681 192.476C256.078 197.436 270.955 187.604 272.449 186.262C275.579 183.451 281.631 176.779 280.377 171.905C279.725 169.368 269.234 183.668 268.699 184.655C267.462 186.939 260.511 200.995 266.771 201.69C273.416 202.429 278.287 195.831 280.485 190.494C283.012 184.355 276.61 190.475 275.449 192.476C273.38 196.043 269.374 205.296 274.806 208.012C281.822 211.52 290.428 194.773 287.717 193.869C284.912 192.934 274.901 221.886 291.413 214.333C295.699 212.372 300.7 206.717 298.27 201.637C295.582 196.017 292.556 205.794 292.377 207.476C291.94 211.583 291.42 216.341 296.556 217.119C301.393 217.852 302.663 213.701 302.663 209.672C302.663 209.082 300.837 201.269 298.913 204.476C297.383 207.025 296.828 215.284 298.966 217.601C300.162 218.896 302.334 218.418 302.663 216.69C303.738 211.043 301.272 206.323 297.841 202.012C292.428 195.208 286.358 189.434 279.627 184.012C275.115 180.377 272.729 177.189 272.878 171.262C273.012 165.875 276.253 162.323 278.985 157.977C282.421 152.51 279.571 155.795 278.342 159.37C277.896 160.667 276.621 165.14 279.627 164.084C284.649 162.32 287.63 154.61 288.681 149.941C291.486 137.474 276.421 150.466 282.949 155.406C286.317 157.954 293.863 156.771 297.252 155.031C299.098 154.083 302.809 150.551 299.448 148.87C291.336 144.814 283.324 160.912 294.681 156.37C299.319 154.515 306.059 150.499 307.377 145.227C308.179 142.021 304.29 143.019 302.77 144.263C296.767 149.175 300.261 153.723 303.306 146.62C305.162 142.288 302.722 144.073 300.841 145.013" stroke="#7BAB65" stroke-width="30" stroke-linecap="round"/>
</svg>
