<svg width="512" height="512" viewBox="0 0 512 512" fill="none" xmlns="http://www.w3.org/2000/svg">
<path fill-rule="evenodd" clip-rule="evenodd" d="M71.0887 163.368C67.2397 170.035 72.0509 178.368 79.7489 178.368H204.881C212.579 178.368 217.391 170.035 213.542 163.368L193.129 128.013C212.337 119.394 233.633 114.6 256.05 114.6C341.022 114.6 409.905 183.484 409.905 268.456C409.905 353.428 341.022 422.311 256.05 422.311C177.096 422.311 112.032 362.839 103.212 286.249H63C71.9838 384.972 154.985 462.311 256.05 462.311C363.113 462.311 449.905 375.519 449.905 268.456C449.905 161.392 363.113 74.6 256.05 74.6C226.347 74.6 198.204 81.2804 173.042 93.2206L150.975 55C147.126 48.3333 137.504 48.3333 133.655 55L71.0887 163.368Z" fill="#0077B6"/>
</svg>
