<svg width="512" height="512" viewBox="0 0 512 512" fill="none" xmlns="http://www.w3.org/2000/svg">
<g clip-path="url(#clip0_60_10)">
<path d="M308.308 86.5288L314.477 105.514C325.856 140.536 358.492 164.247 395.316 164.247H415.278C468.558 164.247 490.711 232.426 447.607 263.743L431.457 275.477C401.666 297.121 389.2 335.488 400.579 370.509L406.748 389.494C423.212 440.167 365.216 482.303 322.111 450.986L305.962 439.253C276.17 417.608 235.83 417.608 206.038 439.253L189.889 450.986C146.784 482.303 88.788 440.167 105.252 389.494L111.421 370.509C122.8 335.488 110.334 297.121 80.5429 275.477L64.3934 263.743C21.2891 232.426 43.4418 164.247 96.7216 164.247H116.684C153.508 164.247 186.144 140.536 197.523 105.514L203.692 86.5289C220.156 35.8568 291.844 35.8568 308.308 86.5288Z" stroke="#666666" stroke-width="30"/>
<circle cx="256" cy="271" r="66" fill="#FFC05B" stroke="#666666" stroke-width="30"/>
</g>
<defs>
<clipPath id="clip0_60_10">
<rect width="512" height="512" fill="white"/>
</clipPath>
</defs>
</svg>
