<svg width="512" height="512" viewBox="0 0 512 512" fill="none" xmlns="http://www.w3.org/2000/svg">
<g clip-path="url(#clip0_282_7)">
<path d="M203.691 86.5293C220.156 35.8572 291.843 35.8572 308.308 86.5293L314.477 105.514C325.856 140.536 358.492 164.247 395.316 164.247H415.278C468.558 164.247 490.711 232.426 447.606 263.743L431.457 275.477C401.898 296.952 389.395 334.889 400.316 369.688L400.579 370.51L406.748 389.494C423.084 439.77 366.117 481.645 323.124 451.707L322.111 450.986L305.962 439.253C276.17 417.608 235.83 417.608 206.038 439.253L189.889 450.986C146.784 482.303 88.7876 440.166 105.252 389.494L111.421 370.51C122.8 335.488 110.334 297.121 80.543 275.477L64.3936 263.743C21.2893 232.426 43.4419 164.247 96.7217 164.247H116.684C153.22 164.247 185.634 140.904 197.253 106.332L197.523 105.514L203.691 86.5293Z" stroke="#F5F5F5" stroke-width="30"/>
<circle cx="256" cy="271" r="66" fill="#FFC05B" stroke="#F5F5F5" stroke-width="30"/>
</g>
<defs>
<clipPath id="clip0_282_7">
<rect width="512" height="512" fill="white"/>
</clipPath>
</defs>
</svg>
